<svg xmlns="http://www.w3.org/2000/svg" viewBox="0 0 630 630">
<style>@media (prefers-color-scheme: dark) { .a { fill: #fff } }</style>
<path class="a" fill="#000" d="M389 615c10-4 15-39 13-40 2 1 6 22 8 27l16-52c20 0 9 25 17 33-1-1 9-29 4-29 15-9 22-91 18-91-8 10-6-55-6-77 0 0-34-46-24-57l28 11c0 1-39-41-27-41-4 0 27 26 24 15-3-8-37-107-18-101 11 33 36 71 52 103 1-9-9-39-7-42 0-1 45 37 43 48 4-28-25-41-25-62 0-13 45 11 46 11 23 0-46-111-51-103-1-15-28-25-30-50-3-29-54-27-55-43 2 3 27-18 27-23 0 12-103-39-121 7 3-9-20-44-18-46 7-12 144 19 144 36 0 14 41 50 45 70 10 43 74 74 79 107 10 69 50 176-48 207-21 7 8 72 6 88-8 46-104 79-140 94 6-2 21-8 0 0z"/><path class="a" fill="#000" d="M119 550c-9-9 22-30 16-37-7-9-76 10-63-37 0-4 44-62 35-62-35 0-44-48-58-64-8-15-18-88 15-102 20-9 26-37 34-55 6-12 24-78 30-48 3-24 33-32 47-55-6 11-37-9-46 6 26-40 51-70 94-78 3 14 40 29 39 29L159 77c0 18 39-13 39 11-10 6-63 44-45 63l17-26c0-4 11 48 10 52-2 8-3 16-1 25 6-12 2-9 3-11 39 3 31 10 61 20 19 6 52-1 69-12 25-16 20 15 35-3 7-2 16 38 16 15-1-2 15 35 13 12 15 14 14 32 29 33 9 23-98-19-98 1 0-12 38 7 41 10-2 5-5 9-9 11-7-13-88-35-76-60 0 4-33 106-6 96 16-7 12-15 17-12 9 5 7 9 28 9 0-8-4-14-10-18 1-5 57 23 40 40-5 5-20-16-28-12-22 12 47 35 47 35 2-1-7 35-4 36 3-5 8-5 15-1 6 2-12-20 6 0 16 16 29 27 35 52-46-43-30 40-38 58-1 1-7-17-5-19-5 40-18-16-20-16-4 36-10 15-13-6-3 0-8 32-16 32-20 0 0-57-7-57-3 0-23 34-24 36 0 0 8-40-7-10 2-1-7-38 7-38-27 0-35 70-38 95 0-1 19-8 22-15 11-4-10 62-12 61-2-3-33-27-29-27-3 3 6-41 22-41-30 0 6-41-7-49-4-2-84 70-95 81-28 32 56 19 7 51 7-4-20-18-31-29z"/></svg>